# xmcd
#
# Track frame offsets:
#	150
#	13791
#	31056
#	43118
#	57766
#	71503
#	82998
#	94714
#	109716
#	120755
#	132243
#
# Disc length: 2000 seconds
#
# Revision: 1
# Processed by: cddbd v1.5.2PL0 Copyright (c) Steve Scherf et al.
# Submitted via: audiograbber 1.83.01
#
DISCID=7f07ce0b
DTITLE=Lucky Tubb and The Modern Day Troubadours - Hillbilly Fever
DYEAR=2013
DGENRE=Country
TTITLE0=Ramblin'
TTITLE1=Sweet Sweet Kisses
TTITLE2=Blue Monday Blues
TTITLE3=Honky Tonk Is All We've Got
TTITLE4=Hillbilly Fever
TTITLE5=You Sure Look Lonesome
TTITLE6=Tired Of What You Don't Do
TTITLE7=Not At All
TTITLE8=Nashville Operator
TTITLE9=West
TTITLE10=Hidden Track
EXTD=
EXTT0=
EXTT1=
EXTT2=
EXTT3=
EXTT4=
EXTT5=
EXTT6=
EXTT7=
EXTT8=
EXTT9=
EXTT10=
PLAYORDER=
